<?xml version="1.0" standalone="no"?>
<!DOCTYPE svg PUBLIC "-//W3C//DTD SVG 20010904//EN"
 "http://www.w3.org/TR/2001/REC-SVG-20010904/DTD/svg10.dtd">
<svg version="1.0" xmlns="http://www.w3.org/2000/svg"
 width="1915.000000pt" height="463.000000pt" viewBox="0 0 1915.000000 463.000000"
 preserveAspectRatio="xMidYMid meet">

<g transform="translate(0.000000,463.000000) scale(0.100000,-0.100000)"
fill="#000000" stroke="none">
<path d="M485 4326 c-22 -7 -54 -20 -71 -29 -43 -22 -112 -101 -135 -153 -44
-98 -49 -156 -49 -602 l0 -424 -40 -45 c-72 -82 -107 -236 -77 -336 15 -46 14
-48 -13 -100 -36 -66 -45 -142 -26 -227 7 -36 12 -68 10 -71 -2 -4 -17 -9 -34
-12 -35 -7 -35 -8 -12 -107 17 -72 19 -75 49 -78 22 -2 33 -9 37 -25 3 -12 2
-23 -3 -25 -4 -1 -16 -8 -25 -15 -15 -11 -15 -17 0 -87 9 -41 21 -81 27 -87 5
-7 31 -13 58 -13 l49 0 0 -622 c0 -674 2 -704 55 -807 62 -124 156 -181 310
-189 299 -15 786 204 1241 559 132 103 328 292 322 310 -3 8 12 40 33 72 21
32 43 74 49 93 6 19 16 34 21 34 10 0 0 -30 -31 -90 -11 -22 -18 -40 -15 -40
3 0 23 35 43 78 20 42 58 108 84 146 126 183 200 508 199 881 0 365 -74 690
-196 867 -24 35 -60 96 -79 136 -38 79 -57 100 -25 26 12 -25 18 -48 15 -51
-3 -3 -14 14 -25 38 -10 24 -32 64 -49 89 -17 24 -28 48 -25 52 13 23 -193
215 -384 360 -338 254 -693 433 -978 493 -85 18 -255 18 -310 1z m215 -135
c122 -41 396 -174 503 -244 123 -80 397 -307 397 -329 0 -4 -11 -15 -25 -24
-24 -16 -25 -15 -132 82 -190 172 -300 245 -542 361 -192 91 -278 123 -357
130 -105 10 -165 -25 -201 -117 -15 -40 -18 -93 -21 -468 l-3 -422 -29 -15
c-16 -8 -31 -15 -35 -15 -3 0 -5 179 -5 398 1 421 8 510 48 588 23 45 66 88
102 103 49 21 197 7 300 -28z m221 -191 c149 -63 337 -193 495 -343 l94 -89
-6 -56 c-5 -47 -1 -75 25 -157 42 -135 41 -189 -5 -285 -47 -98 -79 -212 -95
-335 -7 -55 -18 -112 -26 -127 -18 -37 -17 -97 2 -104 28 -11 15 -39 -28 -59
-114 -56 -109 -226 9 -282 35 -17 45 -47 19 -57 -19 -7 -20 -69 -1 -99 7 -12
19 -66 25 -120 16 -126 42 -221 92 -330 50 -107 52 -156 14 -277 -32 -99 -41
-170 -26 -198 9 -17 -3 -32 -97 -123 -160 -156 -316 -266 -487 -344 -136 -62
-216 -68 -255 -18 -20 25 -20 37 -18 686 l3 661 35 9 c19 5 39 12 44 17 5 5 1
45 -9 95 -16 75 -21 86 -42 92 -20 4 -23 10 -18 27 15 45 17 135 4 192 -16 73
-14 88 19 143 24 41 25 46 12 90 -37 132 -50 211 -50 322 0 92 3 119 15 129 9
7 15 29 15 52 0 25 -5 41 -15 44 -13 5 -15 61 -15 418 0 226 4 416 8 423 4 7
23 19 42 28 48 21 136 11 221 -25z m808 -396 c48 -10 81 -49 81 -96 0 -49 -20
-47 -32 3 -10 39 -50 79 -79 79 -10 0 -19 5 -19 10 0 12 7 12 49 4z m-77 -96
c71 -94 101 -205 101 -378 0 -235 -72 -458 -164 -506 -30 -15 -134 -19 -143
-6 -3 5 10 40 28 78 37 75 76 194 97 289 28 133 10 346 -38 438 -12 25 -13 37
-3 73 12 43 13 44 55 44 36 0 46 -5 67 -32z m87 -3 c17 -20 41 -54 52 -78 26
-50 69 -174 69 -197 0 -10 -17 -53 -38 -98 l-37 -80 -2 92 c-2 144 -44 289
-107 364 l-28 32 30 0 c22 0 38 -10 61 -35z m206 -135 c16 -7 11 -9 -22 -11
-79 -5 -86 -4 -90 9 -5 14 79 16 112 2z m70 -39 c-34 -16 -76 -46 -97 -69 -21
-23 -38 -37 -38 -32 0 21 98 109 131 119 63 17 64 10 4 -18z m65 -43 c-191
-74 -318 -428 -332 -933 -3 -88 -1 -100 14 -103 15 -3 18 9 21 100 3 101 3
101 5 -28 5 -311 55 -574 144 -749 99 -196 213 -254 337 -171 l50 34 -22 -30
c-29 -39 -101 -86 -144 -94 -173 -32 -337 245 -399 673 -24 163 -24 496 0 653
39 263 116 473 213 580 47 52 109 90 148 89 11 0 -5 -9 -35 -21z m182 -35 c11
-10 29 -31 40 -46 20 -28 20 -28 -25 6 -87 66 -168 58 -251 -26 -28 -29 -65
-78 -81 -109 -16 -31 -31 -55 -33 -53 -2 1 11 31 28 65 39 77 102 147 155 172
50 23 137 18 167 -9z m4 -61 c110 -80 195 -281 240 -568 23 -150 23 -478 0
-627 -36 -230 -105 -423 -186 -520 -70 -83 -173 -100 -247 -40 -107 86 -195
303 -235 578 -19 133 -16 504 5 630 49 285 141 489 251 556 49 30 124 26 172
-9z m-1626 -77 l0 -25 -120 0 c-110 0 -120 2 -120 18 0 10 3 22 7 25 3 4 57 7
120 7 l113 0 0 -25z m-270 1 c0 -8 -16 -24 -35 -36 -57 -35 -89 -114 -93 -231
-6 -143 28 -246 110 -335 23 -25 39 -46 37 -48 -2 -2 -39 3 -82 11 -75 15 -79
17 -93 52 -8 20 -25 74 -36 121 -26 108 -21 247 11 330 20 53 71 113 116 138
29 16 65 15 65 -2z m168 -408 c23 -65 29 -142 13 -167 -8 -12 -11 -8 -16 15
-22 95 -38 151 -51 176 -19 36 -18 38 9 38 20 0 27 -10 45 -62z m1161 -28 c-5
-41 -12 -94 -15 -117 -5 -42 -6 -43 -44 -43 -37 0 -38 1 -42 40 -3 34 1 45 24
67 15 14 40 50 55 79 15 29 29 52 30 51 1 -2 -2 -36 -8 -77z m-168 -90 c41 0
55 -19 39 -51 -9 -16 -22 -19 -85 -19 -64 0 -74 2 -80 20 -3 10 -1 29 5 41 10
18 18 20 48 15 21 -3 53 -6 73 -6z m186 -287 c0 -116 -4 -173 -8 -148 -14 70
-9 335 6 335 1 0 2 -84 2 -187z m-45 10 c2 -87 1 -161 -2 -164 -3 -3 -27 -4
-53 -1 l-49 4 30 32 c17 17 36 44 41 59 25 66 4 157 -45 196 -13 10 -24 22
-24 25 0 3 22 6 50 6 l49 0 3 -157z m-1335 125 c26 -35 56 -129 60 -188 3 -55
0 -71 -19 -105 -20 -34 -29 -40 -61 -43 l-37 -3 20 43 c27 60 26 154 -4 241
l-23 67 28 0 c14 0 31 -6 36 -12z m1142 -6 c7 -7 21 -10 29 -7 9 3 13 3 10 -1
-4 -3 2 -23 13 -42 38 -72 15 -163 -50 -197 -40 -20 -69 -19 -108 5 -67 40
-87 110 -51 179 35 69 117 101 157 63z m101 -112 c0 -5 -2 -10 -4 -10 -3 0 -8
5 -11 10 -3 6 -1 10 4 10 6 0 11 -4 11 -10z m-1374 -12 c12 -19 33 -133 26
-140 -4 -3 -38 -8 -76 -10 l-70 -3 -12 42 c-7 24 -14 58 -16 75 -3 31 -1 33
37 39 68 10 104 10 111 -3z m1374 -18 c0 -5 -2 -10 -4 -10 -3 0 -8 5 -11 10
-3 6 -1 10 4 10 6 0 11 -4 11 -10z m-8 -214 c10 -14 10 -18 -2 -36 -6 -9 -32
-16 -78 -18 -62 -4 -71 -2 -81 15 -5 11 -7 30 -4 42 5 22 9 22 82 15 42 -3 79
-12 83 -18z m112 -21 c3 -25 8 -66 11 -92 3 -27 8 -61 11 -78 5 -24 -1 -18
-31 30 -20 33 -45 69 -56 81 -12 13 -19 35 -19 62 l0 42 39 0 c40 0 40 0 45
-45z m-1409 -7 c20 -92 25 -122 18 -128 -11 -10 -128 -19 -140 -11 -17 10 -43
142 -30 146 21 7 61 12 104 14 37 1 43 -2 48 -21z m1353 -94 c78 -88 127 -271
126 -474 -1 -174 -34 -294 -104 -373 -25 -29 -39 -37 -66 -37 -28 0 -36 5 -45
28 -17 41 -14 71 10 136 68 180 41 438 -69 673 -21 45 -35 84 -32 87 3 3 36 6
73 6 l67 0 40 -46z m-1308 -656 c0 -338 4 -629 10 -662 27 -168 113 -221 285
-176 46 11 164 60 276 114 262 125 405 222 581 394 l77 75 25 -17 c14 -9 26
-20 26 -25 0 -13 -128 -130 -228 -210 -128 -102 -245 -176 -389 -246 -460
-225 -639 -220 -710 21 -15 52 -17 130 -21 691 -3 603 -2 632 15 636 57 15 53
64 53 -595z m1480 242 c0 -5 14 -39 31 -75 31 -63 31 -68 20 -120 -16 -70 -80
-201 -119 -242 -16 -18 -39 -33 -51 -33 -12 0 -21 2 -21 4 0 2 16 29 35 61 19
32 43 85 55 119 25 75 44 218 36 269 -4 25 -3 36 4 32 5 -3 10 -10 10 -15z
m232 -261 c41 -14 47 -18 25 -19 -52 0 -118 45 -167 115 -8 11 9 -2 37 -29 33
-31 70 -55 105 -67z m-72 -28 c0 -8 -120 -24 -128 -17 -2 3 -1 9 3 15 7 13
125 15 125 2z m-150 -137 c0 -19 -5 -44 -10 -55 -14 -25 -62 -49 -97 -48 -26
0 -26 1 13 19 39 17 51 34 69 98 10 34 25 26 25 -14z"/>
<path d="M2115 3156 c-77 -34 -161 -168 -209 -336 -49 -172 -60 -269 -60 -510
0 -239 15 -363 65 -526 70 -230 188 -358 300 -325 114 34 220 238 268 516 34
192 32 497 -5 695 -63 351 -211 551 -359 486z m104 -30 c75 -39 145 -166 190
-347 40 -155 53 -283 53 -484 -1 -457 -136 -815 -305 -815 -41 0 -39 14 8 63
82 86 150 264 187 492 21 130 15 465 -10 605 -39 211 -107 375 -187 449 -24
22 -40 42 -37 45 11 11 73 6 101 -8z m-202 -303 c3 -38 2 -65 -2 -61 -11 11
-36 138 -29 150 12 19 24 -19 31 -89z m83 83 c0 -2 -7 -7 -16 -10 -8 -3 -12
-2 -9 4 6 10 25 14 25 6z m111 -167 l-9 -34 -1 35 c0 19 3 46 7 60 l7 25 3
-26 c2 -15 -1 -42 -7 -60z m-78 -29 c-6 -23 -19 -26 -26 -6 -4 9 1 17 11 19 9
3 18 5 19 6 0 0 -1 -8 -4 -19z m-109 -155 c36 -73 66 -137 65 -142 0 -4 -25
40 -55 100 -30 59 -56 107 -59 107 -3 0 5 -24 16 -52 12 -29 25 -63 29 -75 5
-11 25 -54 45 -94 19 -40 34 -77 32 -82 -5 -17 -167 362 -167 391 0 3 6 -1 14
-7 8 -7 44 -72 80 -146z m-81 33 c-9 -20 -9 -20 -27 7 -12 18 -15 36 -11 53
l6 26 21 -32 c15 -25 18 -38 11 -54z m337 -37 c-13 -32 -30 -41 -30 -16 0 8 5
26 12 40 17 38 34 15 18 -24z m-163 -63 c-3 -7 -5 -2 -5 12 0 14 2 19 5 13 2
-7 2 -19 0 -25z m103 5 c0 -5 -7 -17 -15 -27 -8 -11 -16 -29 -16 -40 -1 -19
-2 -19 -6 -3 -4 16 -9 13 -29 -17 -13 -19 -24 -39 -24 -45 0 -24 -19 -18 -29
9 -7 22 -7 29 1 24 7 -4 9 7 6 35 -3 35 -1 41 15 41 16 0 17 -3 8 -14 -7 -8
-11 -30 -9 -48 l3 -33 40 63 c36 56 56 75 55 55z m-205 -83 c4 -6 -8 -10 -29
-10 -20 0 -36 5 -36 10 0 6 13 10 29 10 17 0 33 -4 36 -10z m3 -97 c3 -65 1
-73 -18 -83 -41 -22 -50 -7 -50 80 l0 81 33 -3 32 -3 3 -72z m-108 -3 c0 -20
-5 -30 -15 -30 -10 0 -15 10 -15 30 0 20 5 30 15 30 10 0 15 -10 15 -30z m320
10 c0 -5 -2 -10 -4 -10 -3 0 -8 5 -11 10 -3 6 -1 10 4 10 6 0 11 -4 11 -10z
m-98 -157 c7 -9 7 -13 -1 -13 -6 0 -12 -17 -12 -37 l-2 -38 -6 40 c-3 22 -4
69 -1 105 l5 65 3 -55 c2 -30 8 -60 14 -67z m-112 45 c0 -11 -47 -21 -59 -13
-20 12 -11 20 24 20 19 0 35 -3 35 -7z m270 -160 c0 -10 -3 -18 -6 -18 -14 0
-33 36 -33 60 l-1 25 20 -25 c11 -14 20 -33 20 -42z m-356 -62 c-9 -14 -20
-26 -25 -26 -15 0 -10 40 8 71 l18 30 8 -25 c6 -18 3 -32 -9 -50z m206 -67 c0
-6 -4 -7 -10 -4 -5 3 -10 11 -10 16 0 6 5 7 10 4 6 -3 10 -11 10 -16z m78 -57
c10 -41 0 -68 -12 -36 -7 18 -8 90 -2 83 3 -3 9 -24 14 -47z m-203 -88 c-6
-51 -18 -74 -29 -56 -4 7 4 59 21 122 10 41 16 -3 8 -66z m91 -62 c-10 -2 -22
0 -28 6 -6 6 0 7 19 4 21 -5 23 -7 9 -10z"/>
<path d="M2396 2222 c-3 -5 -12 -66 -21 -137 -37 -305 -96 -475 -192 -554 -27
-22 -33 -31 -20 -31 61 0 144 90 188 204 47 121 113 485 94 517 -8 11 -42 12
-49 1z"/>
<path d="M16260 3315 c-191 -54 -294 -235 -347 -610 -27 -185 -24 -644 5 -825
42 -270 103 -423 211 -530 76 -75 136 -102 234 -103 71 -1 120 18 174 70 20
18 39 33 42 33 10 0 51 -65 51 -82 0 -22 -53 -65 -93 -76 -36 -10 -154 -8
-202 3 -29 6 -29 6 -10 -10 56 -45 204 -57 271 -22 47 24 87 66 80 84 -4 8 -2
21 4 28 7 8 9 107 8 281 l-3 269 -24 0 c-23 0 -25 -6 -47 -125 -51 -280 -124
-410 -231 -410 -28 0 -33 5 -50 48 -17 44 -18 95 -18 842 0 749 1 798 19 848
22 64 68 120 115 139 33 14 36 14 53 -7 20 -24 79 -202 98 -293 10 -50 14 -57
36 -57 l24 0 0 245 0 245 -24 0 c-16 0 -31 -12 -50 -40 -30 -45 -41 -49 -56
-20 -6 10 -31 33 -56 51 -56 38 -131 47 -214 24z m159 -49 c15 -8 33 -21 39
-29 10 -12 5 -15 -34 -20 -77 -8 -129 -62 -162 -166 -15 -51 -17 -126 -17
-831 0 -771 0 -775 22 -835 12 -33 20 -61 18 -63 -8 -9 -67 85 -82 132 -16 46
-18 124 -21 786 -2 493 1 757 8 804 28 179 126 275 229 222z"/>
<path d="M18389 3312 c-105 -35 -195 -116 -239 -216 -48 -108 -63 -279 -35
-391 34 -134 141 -303 298 -472 282 -302 366 -467 355 -690 -5 -101 -26 -151
-82 -201 -41 -36 -83 -46 -168 -40 -53 4 -64 8 -84 34 -60 75 -129 266 -149
412 -6 46 -9 52 -31 52 -21 0 -24 -5 -24 -37 0 -61 47 -220 90 -302 l39 -76
-36 40 c-68 76 -129 229 -156 390 -12 70 -16 80 -35 83 l-22 3 0 -316 c0 -316
0 -316 21 -313 14 2 25 16 35 43 26 78 65 83 149 20 82 -61 148 -85 238 -85
189 0 335 88 408 244 94 202 44 458 -141 714 -32 45 -57 82 -55 82 8 0 133
-167 175 -233 221 -352 150 -734 -157 -842 -74 -27 -217 -34 -269 -15 -52 20
-36 0 22 -27 50 -23 72 -27 144 -27 146 1 252 44 336 137 81 91 114 184 114
328 0 220 -106 424 -380 729 -182 204 -255 313 -285 427 -20 76 -19 207 1 267
33 97 123 156 210 138 46 -9 81 -54 117 -152 21 -56 33 -102 63 -247 3 -17 11
-23 29 -23 l25 0 -2 278 -3 277 -22 3 c-17 3 -23 -2 -23 -16 0 -33 -11 -53
-36 -63 -20 -7 -43 1 -123 43 -90 47 -105 51 -177 55 -58 2 -94 -2 -135 -15z
m216 -56 c28 -13 59 -33 69 -45 l19 -21 -43 15 c-58 20 -96 19 -146 -6 -155
-74 -163 -354 -18 -572 42 -64 47 -73 19 -42 -184 207 -237 468 -127 621 55
75 136 93 227 50z"/>
<path d="M6475 3308 c-2 -7 -88 -431 -191 -943 -107 -537 -195 -948 -206 -972
-24 -51 -59 -76 -118 -83 -37 -4 -46 -9 -48 -27 -3 -22 -3 -22 185 -25 228 -4
233 -3 233 28 0 19 -5 24 -25 24 -30 0 -32 -22 21 244 19 93 34 171 34 173 0
2 58 3 129 3 115 0 130 -2 135 -17 6 -20 86 -390 86 -398 0 -3 -29 -5 -65 -5
-63 0 -65 -1 -65 -25 l0 -25 230 -2 c127 -1 245 -2 263 -2 28 -1 32 3 35 27 2
18 -1 27 -10 27 -10 0 -63 224 -192 813 -268 1221 -236 1091 -270 1095 -26 3
-28 1 -23 -20 4 -13 97 -435 207 -938 111 -503 203 -923 206 -932 4 -14 -1
-18 -20 -18 -14 0 -26 2 -26 5 0 7 -430 1967 -436 1988 -6 20 -62 24 -69 5z
m-79 -1115 l-62 -308 -42 -3 c-29 -2 -42 1 -42 10 0 16 150 777 157 798 3 8
16 -31 28 -87 l22 -102 -61 -308z m144 -83 c23 -107 43 -203 46 -212 5 -16 -4
-18 -96 -18 -99 0 -100 0 -95 23 13 61 85 422 86 431 2 31 23 -49 59 -224z
m-210 -292 c16 -10 24 -10 40 0 12 7 58 12 124 12 99 0 104 -1 110 -22 3 -13
6 -26 6 -30 0 -5 -67 -8 -150 -8 -82 0 -150 -1 -150 -3 0 -7 -78 -393 -85
-419 -8 -33 -25 -36 -50 -8 -26 28 -23 69 21 293 l38 197 38 0 c21 0 47 -6 58
-12z"/>
<path d="M17332 3302 l-463 -2 3 -23 c3 -20 9 -22 70 -25 l67 -3 1 -964 1
-964 -68 -3 c-62 -3 -68 -5 -71 -25 l-3 -23 225 0 c160 0 232 -4 246 -12 15
-10 26 -10 53 0 22 8 102 12 235 12 l202 0 0 265 0 265 -25 0 c-18 0 -26 -6
-29 -22 -39 -191 -96 -337 -152 -390 -44 -41 -112 -68 -171 -68 l-53 0 0 450
0 450 91 0 90 0 15 -36 c9 -20 18 -68 21 -106 5 -63 8 -69 27 -66 21 3 21 5
21 328 l0 325 -22 3 c-21 3 -23 0 -23 -50 0 -74 -16 -122 -53 -165 -35 -40
-97 -72 -139 -73 l-28 0 0 385 0 385 119 0 c66 0 131 -4 146 -10 39 -15 68
-91 101 -268 4 -17 10 -22 27 -20 22 3 22 3 22 227 0 142 -4 225 -10 225 -5 1
-218 0 -473 -2z m255 -77 c59 -30 96 -64 53 -50 -14 4 -87 10 -162 12 l-138 5
0 -406 0 -406 -30 0 -30 0 0 435 0 435 128 0 c117 0 132 -2 179 -25z m-95
-916 c28 -14 58 -40 58 -49 0 -3 -21 -4 -47 -1 -27 3 -74 5 -105 3 l-58 -3 0
-469 0 -470 -30 0 -30 0 0 504 0 504 94 -4 c52 -1 105 -8 118 -15z"/>
<path d="M4157 3292 l-198 -2 3 -23 c3 -20 9 -22 70 -25 l67 -3 1 -964 1 -964
-68 -3 c-62 -3 -68 -5 -71 -25 l-3 -22 238 -5 c131 -2 245 -4 253 -4 8 -1 94
1 191 4 l177 6 7 201 c4 111 5 238 3 282 -3 73 -5 80 -25 83 -19 3 -22 -3 -28
-45 -11 -90 -53 -251 -80 -305 -43 -87 -127 -158 -185 -158 -20 0 -20 1 -20
910 l0 910 65 0 c50 0 67 4 72 16 10 28 -10 33 -105 27 l-92 -6 0 -933 0 -934
-29 0 -29 0 -4 958 c-3 526 -2 962 1 967 7 11 9 11 82 14 46 1 50 3 47 24 -3
25 14 24 -341 19z"/>
<path d="M4900 3026 c0 -256 1 -274 18 -271 9 2 20 4 25 4 4 1 7 17 7 36 0 47
27 176 50 243 22 63 71 131 118 163 33 22 148 53 164 43 4 -3 8 -17 8 -32 0
-24 -7 -30 -51 -45 -135 -48 -219 -213 -219 -429 0 -86 0 -88 24 -88 23 0 25
5 36 88 16 113 52 226 90 285 30 43 83 87 109 87 8 0 11 -237 11 -900 l0 -900
-70 0 c-68 0 -70 -1 -70 -25 l0 -25 230 -2 c127 -1 246 -2 266 -2 l35 -1 -1
943 -1 942 29 0 c56 0 90 -19 111 -64 26 -52 58 -175 67 -255 6 -56 9 -61 30
-61 l24 0 -2 268 -3 267 -517 3 -518 2 0 -274z m782 192 c25 -11 56 -31 69
-44 26 -28 24 -29 -24 -9 -20 8 -55 15 -77 15 l-40 0 0 -935 0 -935 -30 0 -30
0 0 963 c0 530 3 966 6 970 9 9 75 -4 126 -25z"/>
<path d="M7950 3030 l0 -270 24 0 c21 0 24 5 31 58 18 156 60 273 120 340 48
53 91 75 168 86 l47 7 0 -33 c0 -31 -4 -35 -50 -51 -28 -10 -66 -32 -86 -49
-75 -66 -138 -252 -132 -391 3 -65 5 -72 25 -75 24 -4 28 6 38 91 8 74 40 187
66 241 25 49 73 102 112 122 l27 15 0 -906 0 -905 -70 0 c-68 0 -70 -1 -70
-25 l0 -25 235 -2 c129 -1 249 -2 266 -2 l30 -1 -1 943 -1 942 34 0 c70 0 93
-16 121 -84 14 -35 32 -106 41 -157 10 -52 19 -104 21 -116 3 -17 11 -23 29
-23 l25 0 0 270 0 270 -525 0 -525 0 0 -270z m779 194 c38 -16 105 -64 98 -70
-2 -2 -19 2 -38 10 -19 7 -53 16 -76 20 l-43 6 0 -940 0 -940 -30 0 -30 0 0
971 0 971 43 -7 c23 -4 58 -14 76 -21z"/>
<path d="M9210 3275 c0 -24 2 -25 65 -25 l64 0 1 -970 0 -970 -65 0 c-62 0
-65 -1 -65 -24 l0 -24 263 -4 c144 -2 263 -3 265 -2 1 1 3 425 2 943 l0 941
65 0 c63 0 65 1 65 25 l0 26 -97 -3 -98 -3 -3 -937 -2 -938 -30 0 -30 0 0 970
0 970 70 0 c68 0 70 1 70 25 l0 25 -270 0 -270 0 0 -25z"/>
<path d="M9950 3275 c0 -23 3 -24 67 -27 75 -3 88 -17 62 -65 -10 -18 -10 -26
-1 -35 15 -15 17 -1680 3 -1741 -12 -52 -45 -84 -92 -92 -33 -6 -39 -11 -39
-31 l0 -24 169 0 169 0 -9 43 c-5 23 -8 308 -7 632 l3 590 110 -630 110 -630
33 -3 c17 -2 32 0 32 5 0 21 120 697 125 701 3 3 5 -3 6 -14 0 -15 2 -14 11 6
6 14 12 72 14 130 2 75 27 245 89 600 47 272 88 496 90 499 3 2 5 -103 5 -234
l0 -239 -65 -385 c-60 -353 -81 -454 -85 -411 -2 20 -129 -697 -129 -733 -1
-26 2 -28 31 -25 l33 3 96 555 c52 305 100 578 106 605 8 38 11 -81 12 -482
l1 -533 -70 0 c-68 0 -70 -1 -70 -25 l0 -25 235 -2 c129 -1 249 -2 266 -2 l30
-1 2 944 2 944 68 -1 c64 0 67 1 67 24 0 24 -1 24 -100 24 l-100 0 -2 -937 -3
-938 -26 -3 c-17 -2 -29 3 -32 12 -4 9 -5 445 -4 968 l2 953 70 5 c62 4 70 7
70 25 0 19 -7 20 -225 20 l-225 0 -82 -480 c-45 -264 -83 -484 -83 -490 -2
-13 -36 172 -100 553 l-53 312 -30 0 c-26 0 -28 -3 -23 -27 3 -16 44 -253 90
-528 83 -486 85 -502 72 -565 -11 -58 -13 -62 -19 -35 -4 17 -52 296 -107 620
-55 325 -103 602 -106 618 l-6 27 -229 0 -229 0 0 -25z m234 -225 l26 -155 0
-782 c0 -431 -4 -783 -8 -783 -19 0 -44 41 -48 77 -7 65 -10 1813 -4 1805 4
-4 19 -77 34 -162z"/>
<path d="M11520 3275 c0 -24 2 -25 65 -25 l64 0 1 -970 0 -970 -65 0 c-62 0
-65 -1 -65 -24 l0 -25 243 -3 c133 -2 347 -2 475 0 l232 3 0 265 0 264 -24 0
c-22 0 -26 -6 -36 -57 -19 -104 -71 -249 -106 -302 -45 -67 -96 -100 -178
-114 -36 -6 -68 -9 -70 -6 -4 4 -9 796 -6 897 0 8 24 12 85 12 84 0 85 0 100
-30 9 -17 19 -63 23 -103 6 -64 9 -72 30 -75 l22 -3 0 325 0 326 -25 0 c-24 0
-25 -3 -25 -62 -1 -112 -55 -189 -151 -214 -29 -8 -55 -12 -57 -9 -3 3 -7 176
-10 385 l-5 379 28 7 c39 10 228 -1 253 -15 25 -13 58 -98 79 -203 14 -71 18
-78 39 -78 l24 0 0 225 0 225 -470 0 -470 0 0 -25z m665 -36 c41 -11 115 -56
115 -69 0 -5 -21 -2 -47 6 -28 8 -91 14 -160 14 l-113 0 0 -411 0 -410 -27 3
-28 3 -3 438 -2 437 112 0 c62 0 131 -5 153 -11z m-21 -952 c20 -16 36 -29 36
-30 0 -1 -49 -1 -110 1 l-110 4 0 -476 0 -476 -30 0 -30 0 0 504 0 504 104 -2
c96 -2 106 -4 140 -29z"/>
<path d="M12700 3275 c0 -24 2 -25 65 -25 l65 0 -2 -52 c-1 -29 -1 -460 0
-958 1 -498 2 -911 2 -917 0 -9 -20 -13 -65 -13 -63 0 -65 -1 -65 -25 l0 -25
230 -2 c127 -1 246 -2 266 -2 l36 -1 -1 431 -2 431 108 6 c273 16 389 107 446
351 16 70 15 317 -2 386 -23 94 -66 173 -121 221 -28 24 -76 67 -108 95 -124
111 -181 124 -564 124 l-288 0 0 -25z m599 -52 c20 -10 37 -25 39 -34 2 -14
-4 -15 -45 -8 -26 4 -67 8 -90 8 l-43 1 0 -458 0 -459 -30 5 -30 4 0 486 0
485 81 -6 c45 -4 98 -14 118 -24z m63 -92 c18 -16 30 -237 25 -446 -5 -238
-17 -307 -58 -351 -25 -27 -70 -54 -89 -54 -7 0 -10 138 -10 434 l0 434 63 -5
c34 -3 65 -9 69 -12z m294 -76 c61 -106 88 -265 73 -439 -27 -314 -148 -432
-465 -452 l-104 -7 0 -424 0 -424 -27 3 -28 3 0 455 0 455 28 3 c15 2 27 -1
27 -7 0 -12 53 -15 64 -4 4 5 43 13 87 19 258 37 368 212 357 567 -4 140 -14
187 -63 302 -15 35 23 -2 51 -50z"/>
<path d="M13914 3285 c-11 -26 7 -35 71 -35 l64 0 1 -970 0 -970 -65 0 c-63 0
-65 -1 -65 -25 l0 -25 230 -2 c127 -1 244 -2 261 -2 l31 -1 1 945 2 945 68 3
c65 3 67 4 67 29 0 25 -2 26 -46 19 -26 -3 -71 -6 -100 -6 l-54 0 0 -941 0
-940 -27 3 -28 3 -3 967 -2 967 67 3 c62 3 68 5 71 26 l3 22 -271 0 c-227 0
-272 -2 -276 -15z"/>
<path d="M14670 3275 c0 -24 2 -25 71 -25 l71 0 -6 -32 c-4 -18 -6 -40 -5 -48
1 -8 2 -429 3 -935 l1 -920 -68 -3 c-64 -3 -68 -4 -65 -25 3 -22 4 -22 228
-23 124 -1 233 -5 243 -9 9 -4 30 -4 45 0 15 4 118 8 229 9 l203 1 0 268 0
268 -22 -3 c-18 -2 -24 -14 -35 -68 -56 -281 -147 -403 -304 -412 l-54 -3 -3
453 -2 452 90 0 c89 0 91 0 102 -27 6 -16 15 -63 21 -105 9 -64 14 -78 29 -78
17 0 18 20 18 325 0 310 -1 325 -19 325 -15 0 -19 -11 -25 -65 -8 -83 -20
-112 -59 -154 -37 -39 -83 -61 -127 -61 l-30 0 0 385 0 385 103 0 c165 0 175
-3 204 -67 14 -30 33 -93 42 -141 16 -75 21 -87 40 -90 21 -3 21 -3 21 222 l0
226 -470 0 -470 0 0 -25z m680 -35 c20 -5 51 -23 70 -40 l35 -30 -30 7 c-16 5
-88 8 -160 8 l-130 0 0 -400 0 -400 -30 0 -30 0 -3 433 -2 432 122 0 c68 0
139 -5 158 -10z m-32 -948 c17 -13 32 -26 32 -30 0 -4 -47 -5 -105 -4 l-105 4
0 -460 c0 -253 -3 -467 -6 -476 -8 -21 -50 -21 -58 0 -3 9 -6 235 -6 504 l0
488 108 -1 c94 -2 111 -5 140 -25z"/>
<path d="M2780 3265 c0 -24 2 -25 65 -25 73 0 88 -13 65 -54 -9 -18 -9 -29 -1
-44 8 -15 11 -286 11 -926 l0 -905 -67 -3 c-62 -3 -68 -5 -71 -25 l-3 -23 225
0 c160 0 232 -4 246 -12 15 -10 26 -10 53 0 22 8 101 12 230 12 l197 0 0 266
0 265 -21 -3 c-19 -3 -25 -17 -45 -104 -27 -121 -70 -228 -113 -283 -43 -54
-120 -91 -188 -91 l-53 0 0 450 0 450 89 0 89 0 16 -39 c8 -22 18 -69 22 -105
6 -55 10 -66 25 -66 18 0 19 15 19 331 l0 330 -22 -3 c-21 -3 -23 -9 -28 -85
-5 -72 -9 -87 -36 -120 -34 -43 -105 -83 -146 -83 l-28 0 0 385 0 385 119 0
c66 0 131 -4 144 -9 31 -12 62 -85 86 -199 15 -75 21 -87 39 -90 22 -3 22 -3
22 222 l0 226 -470 0 -470 0 0 -25z m705 -44 c22 -10 49 -28 60 -41 l20 -23
-25 9 c-14 5 -86 9 -160 9 l-135 0 -3 -403 -2 -403 -28 3 -27 3 -3 433 -2 432
132 0 c108 0 141 -4 173 -19z m-64 -936 c21 -14 39 -29 39 -33 0 -4 -47 -6
-105 -4 l-105 3 -2 -468 -3 -468 -30 0 -30 0 -3 490 c-1 270 0 495 2 501 3 8
36 11 101 8 85 -2 102 -6 136 -29z"/>
<path d="M15680 3007 c0 -233 3 -257 36 -257 l24 0 -2 223 -3 222 -27 3 -28 3
0 -194z"/>
<path d="M16731 3181 c-14 -26 -14 -394 0 -444 8 -31 14 -38 32 -35 22 3 22 4
22 248 0 244 0 245 -22 248 -14 2 -26 -4 -32 -17z"/>
<path d="M17880 3013 c0 -234 4 -263 36 -263 l24 0 0 225 0 225 -30 0 -30 0 0
-187z"/>
<path d="M18983 3188 c-11 -18 -16 -432 -6 -493 7 -41 12 -51 31 -53 l22 -3 0
280 c0 271 -1 281 -19 281 -11 0 -23 -6 -28 -12z"/>
<path d="M3789 3168 c-2 -93 3 -387 8 -405 3 -16 13 -23 29 -23 l24 0 0 225 0
225 -30 0 c-24 0 -30 -4 -31 -22z"/>
<path d="M6004 3175 c-8 -21 2 -474 11 -502 5 -16 15 -23 31 -23 l24 0 0 270
0 270 -30 0 c-18 0 -33 -6 -36 -15z"/>
<path d="M9060 2973 c0 -120 3 -242 6 -270 6 -47 9 -53 30 -53 l24 0 0 270 0
270 -30 0 -30 0 0 -217z"/>
<path d="M12520 3016 c0 -95 3 -194 6 -220 6 -43 9 -47 33 -44 l26 3 3 218 2
217 -35 0 -35 0 0 -174z"/>
<path d="M12384 2488 c-11 -93 -11 -432 0 -521 8 -61 11 -68 30 -65 21 3 21 5
21 328 0 323 0 325 -21 328 -19 3 -22 -4 -30 -70z"/>
<path d="M15537 2463 c-9 -125 -9 -364 0 -470 6 -79 7 -83 29 -83 l24 0 0 325
0 325 -23 0 c-23 0 -24 -4 -30 -97z"/>
<path d="M17735 2413 c-7 -144 -1 -405 11 -470 4 -24 12 -33 25 -33 18 0 19
13 19 325 l0 325 -24 0 c-24 0 -24 -1 -31 -147z"/>
<path d="M3646 2458 c-8 -116 -8 -369 1 -475 6 -79 7 -83 29 -83 l24 0 0 325
0 325 -24 0 c-22 0 -23 -4 -30 -92z"/>
<path d="M16757 1693 c-10 -64 -10 -500 0 -518 6 -9 18 -15 29 -13 18 3 19 17
22 286 l2 282 -24 0 c-19 0 -24 -6 -29 -37z"/>
<path d="M4905 1709 c-7 -11 -13 -144 -18 -374 l-3 -130 -397 -3 -398 -2 3
-23 3 -22 425 3 425 4 3 279 c2 271 2 279 -17 279 -11 0 -23 -5 -26 -11z"/>
<path d="M17903 1688 c-4 -7 -9 -118 -11 -245 l-4 -233 -441 -2 -442 -3 -3
-23 -3 -22 473 2 473 3 0 265 c0 238 -2 265 -17 268 -9 2 -20 -3 -25 -10z"/>
<path d="M3808 1663 c-9 -19 -13 -94 -13 -243 l0 -215 -445 -5 c-437 -5 -445
-5 -445 -25 0 -20 7 -20 475 -20 l475 0 0 265 c0 244 -1 265 -17 268 -12 2
-22 -6 -30 -25z"/>
<path d="M12543 1678 c-4 -7 -9 -118 -11 -245 l-4 -233 -444 0 c-437 0 -444 0
-444 -20 0 -20 7 -20 474 -20 305 0 476 4 478 10 2 5 2 125 0 265 -3 243 -4
255 -22 255 -10 0 -22 -6 -27 -12z"/>
<path d="M15698 1688 c-1 -2 -4 -111 -7 -243 l-6 -240 -442 -3 c-435 -2 -443
-3 -443 -22 0 -20 7 -20 475 -20 l475 0 0 265 0 265 -25 0 c-14 0 -26 -1 -27
-2z"/>
<path d="M18256 1299 c-24 -19 -27 -27 -24 -78 3 -47 6 -56 22 -56 13 0 23 14
35 45 11 31 26 49 46 59 l29 14 -23 18 c-30 25 -52 24 -85 -2z"/>
<path d="M6223 1203 c-175 -3 -183 -4 -183 -23 0 -19 7 -20 206 -20 l205 0 -3
23 c-2 14 -10 22 -23 22 -11 1 -102 -1 -202 -2z"/>
<path d="M6948 1203 c-230 -3 -238 -4 -238 -23 0 -19 7 -20 266 -20 l265 0 -3
23 c-2 16 -10 22 -28 22 -14 1 -132 -1 -262 -2z"/>
<path d="M8573 1203 c-235 -3 -243 -4 -243 -23 0 -19 7 -20 270 -20 l270 0 0
25 c0 21 -4 25 -27 23 -16 -2 -137 -4 -270 -5z"/>
<path d="M9573 1203 c-235 -3 -243 -4 -243 -23 0 -19 7 -20 270 -20 l270 0 0
25 c0 21 -4 25 -27 23 -16 -2 -137 -4 -270 -5z"/>
<path d="M10210 1200 c-118 -4 -135 -7 -138 -22 -3 -17 10 -18 167 -18 l171 0
0 25 c0 22 -4 25 -32 23 -18 -1 -94 -5 -168 -8z"/>
<path d="M11128 1203 c-230 -3 -238 -4 -238 -23 0 -19 7 -20 270 -20 l270 0 0
25 c0 22 -4 25 -32 23 -18 -2 -140 -4 -270 -5z"/>
<path d="M13063 1203 c-235 -3 -243 -4 -243 -23 0 -19 7 -20 270 -20 l270 0 0
25 c0 21 -4 25 -27 23 -16 -2 -137 -4 -270 -5z"/>
<path d="M14278 1203 c-230 -3 -238 -4 -238 -23 0 -19 7 -20 270 -20 l270 0 0
25 c0 22 -4 25 -32 23 -18 -2 -140 -4 -270 -5z"/>
<path d="M5277 1193 c-4 -3 -7 -12 -7 -20 0 -10 53 -13 275 -13 268 0 275 0
275 20 0 20 -7 20 -268 20 -148 0 -272 -3 -275 -7z"/>
</g>
</svg>
