<?xml version="1.0" standalone="no"?>
<!DOCTYPE svg PUBLIC "-//W3C//DTD SVG 20010904//EN"
 "http://www.w3.org/TR/2001/REC-SVG-20010904/DTD/svg10.dtd">
<svg version="1.0" xmlns="http://www.w3.org/2000/svg"
 width="258.000000pt" height="463.000000pt" viewBox="0 0 258.000000 463.000000"
 preserveAspectRatio="xMidYMid meet">

<g transform="translate(0.000000,463.000000) scale(0.100000,-0.100000)"
fill="#ffffff" stroke="none">
<path d="M485 4326 c-22 -7 -54 -20 -71 -29 -43 -22 -112 -101 -135 -153 -44
-98 -49 -156 -49 -602 l0 -424 -40 -45 c-72 -82 -107 -236 -77 -336 15 -46 14
-48 -13 -100 -36 -66 -45 -142 -26 -227 7 -36 12 -68 10 -71 -2 -4 -17 -9 -34
-12 -35 -7 -35 -8 -12 -107 17 -72 19 -75 49 -78 22 -2 33 -9 37 -25 3 -12 2
-23 -3 -25 -4 -1 -16 -8 -25 -15 -15 -11 -15 -17 0 -87 9 -41 21 -81 27 -87 5
-7 31 -13 58 -13 l49 0 0 -622 c0 -674 2 -704 55 -807 62 -124 156 -181 310
-189 299 -15 786 204 1241 559 132 103 328 292 322 310 -3 8 12 40 33 72 21
32 43 74 49 93 6 19 16 34 21 34 10 0 0 -30 -31 -90 -11 -22 -18 -40 -15 -40
3 0 23 35 43 78 20 42 58 108 84 146 126 183 200 508 199 881 0 365 -74 690
-196 867 -24 35 -60 96 -79 136 -38 79 -57 100 -25 26 12 -25 18 -48 15 -51
-3 -3 -14 14 -25 38 -10 24 -32 64 -49 89 -17 24 -28 48 -26 52 15 23 -185
210 -383 360 -338 254 -693 433 -978 493 -85 18 -255 18 -310 1z m215 -135
c122 -41 396 -174 503 -244 123 -80 397 -307 397 -329 0 -4 -11 -15 -25 -24
-24 -16 -25 -15 -132 82 -190 172 -300 245 -542 361 -192 91 -278 123 -357
130 -105 10 -165 -25 -201 -117 -15 -40 -18 -93 -21 -468 l-3 -422 -29 -15
c-16 -8 -31 -15 -35 -15 -3 0 -5 179 -5 398 1 421 8 510 48 588 23 45 66 88
102 103 49 21 197 7 300 -28z m221 -191 c149 -63 337 -193 495 -343 l94 -89
-6 -56 c-5 -47 -1 -75 25 -157 42 -135 41 -189 -5 -285 -47 -98 -79 -212 -95
-335 -7 -55 -18 -112 -26 -127 -18 -37 -17 -97 2 -104 28 -11 15 -39 -28 -59
-114 -56 -109 -226 9 -282 35 -17 45 -47 19 -57 -19 -7 -20 -69 -1 -99 7 -12
19 -66 25 -120 16 -126 42 -221 92 -330 50 -107 52 -156 14 -277 -32 -99 -41
-170 -26 -198 9 -17 -3 -32 -97 -123 -160 -156 -316 -266 -487 -344 -136 -62
-216 -68 -255 -18 -20 25 -20 37 -18 686 l3 661 35 9 c19 5 39 12 44 17 5 5 1
45 -9 95 -16 75 -21 86 -42 92 -20 4 -23 10 -18 27 15 45 17 135 4 192 -16 73
-14 88 19 143 24 41 25 46 12 90 -37 132 -50 211 -50 322 0 92 3 119 15 129 9
7 15 29 15 52 0 25 -5 41 -15 44 -13 5 -15 61 -15 418 0 226 4 416 8 423 4 7
23 19 42 28 48 21 136 11 221 -25z m808 -396 c48 -10 81 -49 81 -96 0 -49 -20
-47 -32 3 -10 39 -50 79 -79 79 -10 0 -19 5 -19 10 0 12 7 12 49 4z m-77 -96
c56 -74 81 -146 98 -282 29 -234 -55 -547 -161 -602 -30 -15 -134 -19 -143 -6
-3 5 10 40 28 78 37 75 76 194 97 289 28 133 10 346 -38 438 -12 25 -13 37 -3
73 12 43 13 44 55 44 36 0 46 -5 67 -32z m87 -3 c17 -20 41 -54 52 -78 26 -50
69 -174 69 -197 0 -10 -17 -53 -38 -98 l-37 -80 -2 92 c-2 144 -44 289 -107
364 l-28 32 30 0 c22 0 38 -10 61 -35z m206 -135 c16 -7 11 -9 -22 -11 -79 -5
-86 -4 -90 9 -5 14 79 16 112 2z m70 -39 c-34 -16 -76 -46 -97 -69 -21 -23
-38 -37 -38 -32 0 21 98 109 131 119 63 17 64 10 4 -18z m65 -43 c-191 -74
-318 -428 -332 -933 -3 -88 -1 -100 14 -103 15 -3 18 9 21 100 3 101 3 101 5
-28 5 -311 55 -574 144 -749 103 -203 218 -258 347 -164 l42 30 -23 -31 c-29
-40 -101 -88 -145 -96 -173 -32 -337 245 -399 673 -24 163 -24 496 0 653 39
263 116 473 213 580 47 52 109 90 148 89 11 0 -5 -9 -35 -21z m182 -35 c11
-10 29 -31 40 -46 20 -28 20 -28 -25 6 -87 66 -168 58 -251 -26 -28 -29 -65
-78 -81 -109 -16 -31 -31 -55 -33 -53 -2 1 11 31 28 65 39 77 102 147 155 172
50 23 137 18 167 -9z m4 -61 c110 -80 195 -281 240 -568 23 -150 23 -478 0
-628 -36 -227 -106 -423 -186 -519 -70 -83 -173 -100 -247 -40 -107 86 -195
303 -235 578 -19 133 -16 504 5 630 49 285 141 489 251 556 49 30 124 26 172
-9z m-1626 -77 l0 -25 -120 0 c-110 0 -120 2 -120 18 0 10 3 22 7 25 3 4 57 7
120 7 l113 0 0 -25z m-270 1 c0 -8 -16 -24 -35 -36 -57 -35 -89 -114 -93 -231
-6 -143 28 -246 110 -335 23 -25 39 -46 37 -48 -2 -2 -39 3 -82 11 -75 15 -79
17 -93 52 -8 20 -25 74 -36 121 -26 108 -21 247 11 330 20 53 71 113 116 138
29 16 65 15 65 -2z m168 -408 c23 -65 29 -142 13 -167 -8 -12 -11 -8 -16 15
-22 95 -38 151 -51 176 -19 36 -18 38 9 38 20 0 27 -10 45 -62z m1161 -28 c-5
-41 -12 -94 -15 -117 -5 -42 -6 -43 -44 -43 -37 0 -38 1 -42 40 -3 34 1 45 24
67 15 14 40 50 55 79 15 29 29 52 30 51 1 -2 -2 -36 -8 -77z m-168 -90 c41 0
55 -19 39 -51 -9 -16 -22 -19 -85 -19 -64 0 -74 2 -80 20 -3 10 -1 29 5 41 10
18 18 20 48 15 21 -3 53 -6 73 -6z m186 -287 c0 -116 -4 -173 -8 -148 -14 70
-9 335 6 335 1 0 2 -84 2 -187z m-44 4 c-1 -110 -5 -162 -12 -161 -6 1 -30 2
-53 3 l-42 1 31 33 c18 17 37 45 42 60 25 66 4 157 -45 196 -13 10 -24 22 -24
25 0 3 24 6 53 6 l52 0 -2 -163z m-1336 131 c26 -35 56 -129 60 -188 3 -55 0
-71 -19 -105 -20 -34 -29 -40 -61 -43 l-37 -3 20 43 c27 60 26 154 -4 241
l-23 67 28 0 c14 0 31 -6 36 -12z m1142 -6 c7 -7 21 -10 29 -7 9 3 13 3 10 -1
-4 -3 2 -23 13 -42 38 -72 15 -163 -50 -197 -40 -20 -69 -19 -108 5 -67 40
-87 110 -51 179 35 69 117 101 157 63z m101 -112 c0 -5 -2 -10 -4 -10 -3 0 -8
5 -11 10 -3 6 -1 10 4 10 6 0 11 -4 11 -10z m-1374 -12 c12 -19 33 -133 26
-140 -4 -3 -38 -8 -76 -10 l-70 -3 -12 42 c-7 24 -14 58 -16 75 -3 31 -1 33
37 39 68 10 104 10 111 -3z m1374 -18 c0 -5 -2 -10 -4 -10 -3 0 -8 5 -11 10
-3 6 -1 10 4 10 6 0 11 -4 11 -10z m-8 -214 c10 -14 10 -18 -2 -36 -6 -9 -32
-16 -78 -18 -62 -4 -71 -2 -81 15 -5 11 -7 30 -4 42 5 22 9 22 82 15 42 -3 79
-12 83 -18z m112 -21 c3 -25 8 -66 11 -92 3 -27 8 -61 11 -78 5 -24 -1 -18
-31 30 -20 33 -45 69 -56 81 -12 13 -19 35 -19 62 l0 42 39 0 c40 0 40 0 45
-45z m-1409 -7 c20 -92 25 -122 18 -128 -11 -10 -128 -19 -140 -11 -17 10 -43
142 -30 146 21 7 61 12 104 14 37 1 43 -2 48 -21z m1353 -94 c78 -88 127 -271
126 -474 -1 -174 -34 -294 -104 -373 -25 -29 -39 -37 -66 -37 -28 0 -36 5 -45
28 -17 41 -14 71 10 136 68 180 41 438 -69 673 -21 45 -35 84 -32 87 3 3 36 6
73 6 l67 0 40 -46z m-1308 -656 c0 -338 4 -629 10 -662 27 -168 113 -221 285
-176 46 11 164 60 276 114 262 125 405 222 581 394 l77 75 25 -17 c14 -9 26
-20 26 -25 0 -13 -128 -130 -228 -210 -128 -102 -245 -176 -389 -246 -460
-225 -639 -220 -710 21 -15 53 -17 129 -21 691 -3 602 -2 632 15 636 57 15 53
64 53 -595z m1480 242 c0 -5 14 -39 31 -75 31 -63 31 -68 20 -120 -16 -70 -80
-201 -119 -242 -16 -18 -39 -33 -51 -33 -12 0 -21 2 -21 4 0 2 16 29 35 61 19
32 43 85 55 119 25 75 44 218 36 269 -4 25 -3 36 4 32 5 -3 10 -10 10 -15z
m232 -261 c41 -14 47 -18 25 -19 -52 0 -118 45 -167 115 -8 11 9 -2 37 -29 33
-31 70 -55 105 -67z m-72 -28 c0 -8 -120 -24 -128 -17 -2 3 -1 9 3 15 7 13
125 15 125 2z m-150 -137 c0 -19 -5 -44 -10 -55 -14 -25 -62 -49 -97 -48 -26
0 -26 1 13 19 39 17 51 34 69 98 10 34 25 26 25 -14z"/>
<path d="M2115 3156 c-106 -46 -201 -243 -251 -521 -26 -142 -26 -508 0 -650
66 -363 202 -569 347 -526 114 34 220 238 268 516 34 192 32 497 -5 695 -63
351 -211 551 -359 486z m104 -30 c75 -39 145 -166 190 -347 40 -156 53 -283
53 -484 -1 -457 -136 -815 -305 -815 -41 0 -39 14 8 63 82 86 150 265 187 492
19 118 15 455 -6 580 -37 221 -108 397 -189 472 -25 23 -42 44 -39 47 11 11
73 6 101 -8z m-202 -303 c3 -38 2 -65 -2 -61 -11 11 -36 138 -29 150 12 19 24
-19 31 -89z m83 83 c0 -2 -7 -7 -16 -10 -8 -3 -12 -2 -9 4 6 10 25 14 25 6z
m115 -154 c-6 -35 -9 -42 -15 -27 -4 10 -2 37 3 59 13 52 21 29 12 -32z m-82
-42 c-6 -23 -19 -26 -26 -6 -4 9 1 17 11 19 9 3 18 5 19 6 0 0 -1 -8 -4 -19z
m-109 -155 c36 -73 66 -137 65 -142 0 -4 -25 40 -55 100 -30 59 -56 107 -59
107 -3 0 5 -24 16 -52 12 -29 25 -63 29 -75 5 -11 25 -54 45 -94 19 -40 34
-77 32 -82 -5 -17 -167 362 -167 391 0 3 6 -1 14 -7 8 -7 44 -72 80 -146z
m-81 33 c-9 -20 -9 -20 -27 7 -12 18 -15 36 -11 53 l6 26 21 -32 c15 -25 18
-38 11 -54z m337 -37 c-13 -32 -30 -41 -30 -16 0 8 5 26 12 40 17 38 34 15 18
-24z m-163 -63 c-3 -7 -5 -2 -5 12 0 14 2 19 5 13 2 -7 2 -19 0 -25z m103 5
c0 -5 -7 -17 -15 -27 -8 -11 -16 -29 -16 -40 -1 -19 -2 -19 -6 -3 -4 16 -9 13
-29 -17 -13 -19 -24 -39 -24 -45 0 -24 -19 -18 -29 9 -7 22 -7 29 1 24 7 -4 9
7 6 35 -3 35 -1 41 15 41 16 0 17 -3 8 -14 -7 -8 -11 -30 -9 -48 l3 -33 40 63
c36 56 56 75 55 55z m-205 -83 c4 -6 -8 -10 -29 -10 -20 0 -36 5 -36 10 0 6
13 10 29 10 17 0 33 -4 36 -10z m3 -97 c3 -65 1 -73 -18 -83 -41 -22 -50 -7
-50 80 l0 81 33 -3 32 -3 3 -72z m-108 -3 c0 -20 -5 -30 -15 -30 -10 0 -15 10
-15 30 0 20 5 30 15 30 10 0 15 -10 15 -30z m320 10 c0 -5 -2 -10 -4 -10 -3 0
-8 5 -11 10 -3 6 -1 10 4 10 6 0 11 -4 11 -10z m-98 -157 c7 -9 7 -13 -1 -13
-6 0 -12 -17 -12 -37 l-2 -38 -6 40 c-3 22 -4 69 -1 105 l5 65 3 -55 c2 -30 8
-60 14 -67z m-112 45 c0 -11 -47 -21 -59 -13 -20 12 -11 20 24 20 19 0 35 -3
35 -7z m270 -160 c0 -10 -3 -18 -6 -18 -14 0 -33 36 -33 60 l-1 25 20 -25 c11
-14 20 -33 20 -42z m-356 -62 c-9 -14 -20 -26 -25 -26 -15 0 -10 40 8 71 l18
30 8 -25 c6 -18 3 -32 -9 -50z m206 -67 c0 -6 -4 -7 -10 -4 -5 3 -10 11 -10
16 0 6 5 7 10 4 6 -3 10 -11 10 -16z m78 -57 c10 -41 0 -68 -12 -36 -7 18 -8
90 -2 83 3 -3 9 -24 14 -47z m-203 -88 c-6 -51 -18 -74 -29 -56 -4 7 4 59 21
122 10 41 16 -3 8 -66z m91 -62 c-10 -2 -22 0 -28 6 -6 6 0 7 19 4 21 -5 23
-7 9 -10z"/>
<path d="M2396 2222 c-3 -5 -12 -66 -21 -137 -37 -305 -96 -475 -192 -554 -27
-22 -33 -31 -20 -31 61 0 144 90 188 204 47 121 113 485 94 517 -8 11 -42 12
-49 1z"/>
</g>
</svg>
