<?xml version="1.0" standalone="no"?>
<!DOCTYPE svg PUBLIC "-//W3C//DTD SVG 20010904//EN"
 "http://www.w3.org/TR/2001/REC-SVG-20010904/DTD/svg10.dtd">
<svg version="1.0" xmlns="http://www.w3.org/2000/svg"
 width="552.000000pt" height="552.000000pt" viewBox="0 0 552.000000 552.000000"
 preserveAspectRatio="xMidYMid meet">

<g transform="translate(0.000000,552.000000) scale(0.100000,-0.100000)"
fill="#ffffff" stroke="none">
<path d="M2550 5514 c-682 -64 -1273 -337 -1740 -804 -431 -431 -695 -962
-787 -1585 -13 -89 -17 -182 -17 -365 0 -325 33 -551 120 -821 281 -877 936
-1532 1813 -1813 270 -87 496 -120 821 -120 325 0 551 33 821 120 877 281
1532 936 1813 1813 87 270 120 496 120 821 0 325 -33 551 -120 821 -281 876
-936 1532 -1811 1813 -252 81 -478 116 -773 121 -118 1 -235 1 -260 -1z"/>
</g>
<g transform="translate(0.000000,552.000000) scale(0.100000,-0.100000)"
fill="#000000" stroke="none">
<path d="M2678 5453 c-17 -4 -18 -27 -18 -304 l0 -299 100 0 100 0 0 299 c0
263 -2 300 -16 305 -18 7 -140 6 -166 -1z"/>
<path d="M2433 5432 c-9 -5 -9 -26 -3 -77 5 -39 9 -76 10 -83 0 -9 13 -12 43
-10 47 3 46 -1 32 121 -6 56 -7 57 -38 57 -18 0 -37 -4 -44 -8z"/>
<path d="M3006 5432 c-2 -4 -7 -45 -11 -90 l-8 -83 44 3 44 3 8 75 c4 41 5 81
2 88 -5 13 -71 17 -79 4z"/>
<path d="M2183 5390 c-13 -5 -23 -11 -23 -14 0 -12 31 -149 35 -156 4 -7 72 3
80 12 1 1 -5 39 -14 83 -19 85 -29 95 -78 75z"/>
<path d="M3295 5389 c-13 -37 -33 -155 -27 -161 4 -4 23 -9 42 -10 l35 -3 19
78 c11 47 15 82 9 88 -17 17 -72 22 -78 8z"/>
<path d="M1923 5320 c-13 -5 -23 -11 -23 -14 0 -14 44 -143 52 -153 7 -9 16
-9 36 -1 44 19 44 22 20 102 -24 80 -33 87 -85 66z"/>
<path d="M3555 5318 c-21 -58 -45 -133 -45 -143 0 -12 42 -35 65 -35 16 0 71
158 59 170 -18 16 -74 22 -79 8z"/>
<path d="M3800 5213 c-7 -16 -23 -52 -36 -80 l-24 -53 30 -15 c53 -27 55 -25
117 132 4 11 -44 43 -65 43 -5 0 -15 -12 -22 -27z"/>
<path d="M1662 5220 c-12 -5 -25 -15 -28 -23 -3 -10 47 -140 61 -155 3 -3 64
25 74 34 8 7 -62 154 -73 153 -6 0 -21 -4 -34 -9z"/>
<path d="M3856 4889 c-82 -143 -146 -263 -143 -265 14 -15 162 -94 170 -91 5
1 36 50 69 107 124 215 228 402 228 410 0 8 -159 100 -172 100 -2 0 -71 -117
-152 -261z"/>
<path d="M1406 5086 c-38 -23 -71 -47 -74 -54 -4 -14 278 -512 291 -512 15 0
167 93 167 103 0 24 -286 506 -300 506 -8 -1 -46 -20 -84 -43z"/>
<path d="M1197 4948 c-15 -11 -27 -25 -27 -32 0 -7 21 -40 46 -75 48 -67 44
-66 96 -23 16 14 15 19 -24 73 -55 79 -58 81 -91 57z"/>
<path d="M4270 4893 c-27 -38 -50 -73 -50 -78 0 -9 50 -45 63 -45 3 0 29 32
57 70 50 68 52 72 34 86 -50 39 -51 39 -104 -33z"/>
<path d="M981 4776 c-26 -28 -25 -32 37 -102 42 -47 44 -48 70 -33 15 8 28 22
30 32 4 18 -85 127 -103 127 -6 0 -22 -11 -34 -24z"/>
<path d="M4491 4711 c-28 -32 -51 -63 -51 -68 0 -5 11 -20 25 -33 l25 -24 51
50 c71 69 76 80 48 110 -12 13 -28 24 -35 24 -7 0 -35 -26 -63 -59z"/>
<path d="M791 4594 c-12 -15 -21 -30 -21 -35 0 -9 96 -102 112 -108 12 -4 58
38 58 53 0 10 -113 116 -123 116 -3 0 -15 -12 -26 -26z"/>
<path d="M4677 4527 c-31 -29 -57 -56 -57 -62 0 -5 10 -21 21 -34 15 -18 24
-22 38 -15 24 11 121 102 121 113 0 11 -44 51 -56 51 -5 -1 -35 -24 -67 -53z"/>
<path d="M601 4364 c-11 -15 -18 -30 -15 -35 2 -5 32 -30 66 -56 l61 -47 23
30 c13 16 24 34 24 39 -1 12 -113 95 -128 95 -6 0 -20 -12 -31 -26z"/>
<path d="M4847 4333 c-35 -27 -66 -52 -67 -58 -3 -14 33 -65 45 -65 8 0 113
70 144 96 5 5 -42 74 -50 74 -4 0 -36 -21 -72 -47z"/>
<path d="M487 4192 c-22 -26 -87 -142 -87 -155 0 -10 205 -135 449 -274 l57
-32 47 80 c26 45 47 86 47 93 0 6 -48 39 -108 73 -59 35 -171 101 -249 147
-129 77 -143 83 -156 68z"/>
<path d="M4790 4034 c-140 -80 -257 -147 -259 -149 -5 -6 93 -175 102 -175 10
0 498 279 513 294 9 8 -1 32 -35 90 -25 44 -51 81 -56 83 -6 2 -125 -62 -265
-143z"/>
<path d="M1238 3881 c-38 -50 -68 -95 -68 -101 0 -5 270 -226 601 -491 331
-264 597 -484 593 -488 -5 -4 -72 -25 -149 -46 -77 -21 -144 -42 -149 -46 -4
-4 3 -45 17 -91 14 -45 32 -105 39 -133 8 -31 20 -51 30 -53 9 -2 124 31 256
72 131 42 241 76 244 76 3 0 67 -49 143 -110 76 -60 143 -110 151 -110 17 0
244 279 238 294 -2 6 -20 21 -39 34 -19 12 -35 26 -35 31 0 5 53 26 118 46 64
20 178 56 252 80 74 24 230 74 345 110 116 37 372 118 570 181 198 64 452 144
565 180 352 111 335 104 333 141 -3 28 1 32 27 38 39 9 43 18 26 59 -14 34
-15 35 -51 25 -20 -6 -38 -9 -38 -7 -24 48 -24 48 -127 18 -36 -10 -191 -55
-345 -99 -154 -43 -651 -186 -1105 -316 -454 -130 -836 -239 -851 -242 -21 -4
-52 14 -160 89 -174 122 -979 690 -1179 831 -84 61 -161 112 -170 114 -10 3
-38 -27 -82 -86z"/>
<path d="M312 3875 c-7 -14 -12 -32 -12 -39 0 -11 53 -39 137 -73 11 -4 43 44
43 66 0 10 -124 71 -145 71 -6 0 -17 -11 -23 -25z"/>
<path d="M5135 3829 c-38 -18 -72 -33 -74 -35 -7 -7 28 -74 38 -74 6 0 44 16
86 35 l75 34 -13 33 c-7 18 -20 34 -28 35 -8 2 -45 -11 -84 -28z"/>
<path d="M214 3623 c-9 -19 -12 -39 -7 -44 4 -4 38 -19 75 -32 75 -27 83 -24
94 30 6 30 5 31 -71 56 l-76 26 -15 -36z"/>
<path d="M141 3363 c-6 -20 -8 -39 -6 -43 3 -4 37 -16 76 -25 79 -20 90 -16
92 36 2 30 -1 33 -43 44 -109 28 -108 28 -119 -12z"/>
<path d="M5308 3312 c-77 -15 -78 -16 -78 -46 0 -57 8 -60 96 -42 43 9 82 20
87 25 10 10 -5 74 -18 77 -6 1 -45 -6 -87 -14z"/>
<path d="M97 3104 c-4 -4 -7 -24 -7 -44 l0 -38 76 -7 c84 -8 94 -3 94 47 0 21
-6 27 -27 32 -64 12 -129 17 -136 10z"/>
<path d="M5335 3053 c-70 -8 -71 -9 -67 -53 l4 -42 87 7 c47 4 90 11 94 15 5
4 5 24 2 44 -7 35 -9 36 -49 35 -22 -1 -54 -4 -71 -6z"/>
<path d="M70 2750 l0 -100 298 2 297 3 2 98 2 97 -300 0 -299 0 0 -100z"/>
<path d="M4857 2843 c-2 -5 -3 -48 -3 -98 l1 -90 305 0 305 0 0 95 0 95 -302
3 c-166 1 -303 -1 -306 -5z"/>
<path d="M113 2533 c-27 -4 -33 -9 -33 -29 0 -50 14 -62 72 -57 96 7 98 9 98
53 l0 40 -52 -2 c-29 0 -68 -3 -85 -5z"/>
<path d="M5269 2479 c-5 -10 -9 -29 -9 -42 0 -23 5 -26 53 -31 28 -4 68 -9 88
-12 32 -5 37 -2 43 18 13 50 8 68 -21 69 -16 0 -54 4 -86 8 -50 6 -60 5 -68
-10z"/>
<path d="M175 2276 c-49 -11 -50 -12 -49 -49 1 -21 4 -40 7 -43 6 -7 126 15
148 27 13 6 15 16 10 41 -6 28 -11 33 -36 35 -17 1 -52 -4 -80 -11z"/>
<path d="M5227 2213 c-3 -5 -8 -22 -11 -40 -7 -30 -6 -32 31 -41 144 -36 140
-37 149 19 l6 35 -74 17 c-81 19 -95 20 -101 10z"/>
<path d="M258 2025 c-37 -11 -70 -23 -72 -26 -10 -9 15 -79 27 -78 7 0 41 10
77 22 62 21 65 23 62 52 -5 50 -19 55 -94 30z"/>
<path d="M5150 1951 c-7 -17 -10 -37 -7 -45 3 -8 36 -24 74 -36 37 -13 73 -25
80 -27 10 -4 40 74 31 82 -2 1 -34 13 -73 25 -38 13 -75 25 -81 27 -6 2 -17
-10 -24 -26z"/>
<path d="M630 1649 c-135 -77 -247 -142 -248 -144 -5 -5 64 -128 87 -156 17
-21 17 -21 269 122 138 79 251 147 252 150 1 14 -94 169 -104 169 -6 0 -121
-63 -256 -141z"/>
<path d="M343 1753 c-35 -14 -63 -29 -63 -35 0 -17 30 -68 40 -68 6 0 40 13
76 30 54 24 65 33 59 47 -4 10 -10 26 -12 36 -7 23 -26 21 -100 -10z"/>
<path d="M4567 1691 c-26 -44 -47 -85 -47 -90 0 -6 100 -69 223 -142 122 -72
237 -141 256 -152 38 -23 30 -29 91 75 22 36 40 71 40 77 0 9 -465 292 -504
307 -8 3 -30 -24 -59 -75z"/>
<path d="M5055 1710 c-9 -17 -13 -35 -10 -41 7 -11 132 -69 150 -69 12 0 35
41 35 64 0 11 -128 76 -151 76 -5 0 -16 -14 -24 -30z"/>
<path d="M629 1253 l-66 -48 21 -32 c12 -18 27 -33 34 -33 19 0 122 78 122 93
0 7 -10 25 -23 40 l-22 29 -66 -49z"/>
<path d="M4781 1244 c-11 -15 -21 -31 -21 -35 0 -5 30 -32 68 -59 l67 -50 23
26 c12 14 22 31 22 38 0 13 -95 91 -124 102 -7 3 -23 -7 -35 -22z"/>
<path d="M794 1051 c-32 -29 -60 -56 -62 -60 -1 -4 11 -20 27 -35 l30 -28 55
48 c31 27 56 54 56 61 0 7 -10 24 -23 39 l-23 26 -60 -51z"/>
<path d="M4604 1029 l-28 -30 62 -61 61 -62 31 29 c16 16 30 32 30 35 0 4 -29
32 -64 63 l-63 56 -29 -30z"/>
<path d="M1491 729 c-78 -138 -140 -257 -137 -264 5 -14 143 -95 161 -95 8 0
281 466 293 500 2 6 -160 110 -172 110 -1 0 -66 -113 -145 -251z"/>
<path d="M3806 936 c-38 -23 -71 -47 -73 -53 -4 -10 265 -484 287 -506 9 -10
49 9 128 60 l53 33 -27 48 c-15 26 -48 83 -74 127 -26 44 -80 137 -120 208
-47 79 -80 127 -90 126 -8 0 -46 -20 -84 -43z"/>
<path d="M966 854 l-49 -56 30 -30 30 -29 51 53 c29 29 52 60 52 69 0 16 -39
49 -57 49 -4 0 -30 -25 -57 -56z"/>
<path d="M4417 852 l-27 -28 51 -60 c29 -32 57 -60 63 -61 6 -2 24 8 40 21
l29 24 -58 66 c-31 36 -61 66 -64 66 -4 0 -19 -13 -34 -28z"/>
<path d="M1186 673 l-47 -68 28 -22 c15 -13 33 -23 38 -23 11 1 95 112 95 127
0 8 -53 53 -63 53 -2 0 -25 -30 -51 -67z"/>
<path d="M4228 702 c-16 -9 -28 -23 -28 -31 0 -7 20 -42 46 -77 48 -68 49 -68
98 -29 19 14 19 16 -14 62 -19 27 -41 58 -49 70 -19 27 -19 27 -53 5z"/>
<path d="M2664 651 c-2 -2 -4 -136 -4 -298 l0 -293 100 0 100 0 0 298 0 298
-96 -1 c-53 0 -98 -2 -100 -4z"/>
<path d="M1670 394 c-17 -36 -30 -71 -30 -78 0 -13 41 -36 64 -36 12 0 66 112
66 137 0 11 -49 43 -65 43 -3 0 -19 -30 -35 -66z"/>
<path d="M3778 444 c-16 -8 -28 -18 -28 -21 0 -6 60 -143 67 -152 5 -7 73 28
73 38 0 23 -60 146 -72 148 -7 1 -25 -4 -40 -13z"/>
<path d="M1926 349 c-33 -95 -43 -135 -37 -142 4 -4 22 -11 39 -16 37 -11 41
-7 66 83 10 32 14 62 9 67 -17 17 -72 22 -77 8z"/>
<path d="M3525 348 c-16 -6 -31 -12 -33 -13 -5 -4 38 -148 47 -157 7 -8 81 11
81 21 0 19 -49 155 -56 157 -5 1 -22 -2 -39 -8z"/>
<path d="M2157 215 c-10 -43 -16 -79 -15 -80 14 -10 73 -24 79 -18 8 9 39 156
34 161 -2 2 -21 6 -42 9 l-39 5 -17 -77z"/>
<path d="M3280 283 c-8 -2 -20 -6 -26 -8 -9 -3 -7 -25 5 -82 15 -75 17 -78 46
-81 56 -4 61 7 40 97 -19 82 -24 88 -65 74z"/>
<path d="M2447 233 c-3 -10 -9 -48 -13 -85 -6 -66 -6 -67 19 -73 54 -14 61 -6
71 78 5 42 7 79 5 81 -2 2 -20 7 -41 11 -30 6 -37 4 -41 -12z"/>
<path d="M3018 243 c-20 -5 -22 -32 -12 -120 6 -50 9 -53 35 -53 50 0 59 9 54
49 -2 20 -7 57 -10 84 -6 49 -15 54 -67 40z"/>
</g>
</svg>
